<mxfile host="app.diagrams.net" modified="2022-12-14T08:08:26.698Z" agent="5.0 (Windows NT 10.0; Win64; x64) AppleWebKit/537.36 (KHTML, like Gecko) Chrome/108.0.0.0 Safari/537.36" etag="Ps-WSZ3dveZsNyjlinrU" version="20.6.2" type="github">
  <diagram id="FkdHTZFuGlJ3FXZ3zkFA" name="Page-1">
    <mxGraphModel dx="782" dy="428" grid="1" gridSize="10" guides="1" tooltips="1" connect="1" arrows="1" fold="1" page="1" pageScale="1" pageWidth="850" pageHeight="1100" math="0" shadow="0">
      <root>
        <mxCell id="0" />
        <mxCell id="1" parent="0" />
        <mxCell id="MxA3nA4hWYwd1lo81ExB-3" style="edgeStyle=orthogonalEdgeStyle;rounded=0;orthogonalLoop=1;jettySize=auto;html=1;entryX=0.5;entryY=0;entryDx=0;entryDy=0;exitX=0;exitY=0.75;exitDx=0;exitDy=0;" parent="1" source="MxA3nA4hWYwd1lo81ExB-1" target="MxA3nA4hWYwd1lo81ExB-2" edge="1">
          <mxGeometry relative="1" as="geometry">
            <mxPoint x="470" y="250" as="sourcePoint" />
            <Array as="points">
              <mxPoint x="500" y="260" />
              <mxPoint x="470" y="260" />
            </Array>
          </mxGeometry>
        </mxCell>
        <mxCell id="MxA3nA4hWYwd1lo81ExB-16" style="edgeStyle=orthogonalEdgeStyle;rounded=0;orthogonalLoop=1;jettySize=auto;html=1;exitX=1;exitY=1;exitDx=0;exitDy=0;entryX=0.5;entryY=0;entryDx=0;entryDy=0;fontFamily=Garamond;fontSize=12;" parent="1" source="MxA3nA4hWYwd1lo81ExB-1" target="MxA3nA4hWYwd1lo81ExB-7" edge="1">
          <mxGeometry relative="1" as="geometry">
            <Array as="points">
              <mxPoint x="610" y="260" />
            </Array>
          </mxGeometry>
        </mxCell>
        <mxCell id="MxA3nA4hWYwd1lo81ExB-1" value="&lt;font face=&quot;Garamond&quot;&gt;Did micro:bit1 get shaked?&lt;/font&gt;" style="whiteSpace=wrap;html=1;aspect=fixed;" parent="1" vertex="1">
          <mxGeometry x="500" y="180" width="80" height="80" as="geometry" />
        </mxCell>
        <mxCell id="MxA3nA4hWYwd1lo81ExB-29" style="edgeStyle=orthogonalEdgeStyle;rounded=0;orthogonalLoop=1;jettySize=auto;html=1;exitX=0.5;exitY=1;exitDx=0;exitDy=0;entryX=0.5;entryY=0;entryDx=0;entryDy=0;fontFamily=Garamond;fontSize=12;" parent="1" source="MxA3nA4hWYwd1lo81ExB-2" target="MxA3nA4hWYwd1lo81ExB-21" edge="1">
          <mxGeometry relative="1" as="geometry" />
        </mxCell>
        <mxCell id="MxA3nA4hWYwd1lo81ExB-2" value="&lt;font face=&quot;Garamond&quot;&gt;Trigger Function &quot;Brokein&quot;&lt;br&gt;&lt;/font&gt;" style="rhombus;whiteSpace=wrap;html=1;" parent="1" vertex="1">
          <mxGeometry x="420" y="330" width="100" height="100" as="geometry" />
        </mxCell>
        <mxCell id="MxA3nA4hWYwd1lo81ExB-4" value="&lt;font face=&quot;Garamond&quot;&gt;Yes&lt;/font&gt;" style="text;html=1;strokeColor=none;fillColor=none;align=center;verticalAlign=middle;whiteSpace=wrap;rounded=0;" parent="1" vertex="1">
          <mxGeometry x="420" y="280" width="60" height="30" as="geometry" />
        </mxCell>
        <mxCell id="MxA3nA4hWYwd1lo81ExB-18" style="edgeStyle=orthogonalEdgeStyle;rounded=0;orthogonalLoop=1;jettySize=auto;html=1;exitX=1;exitY=0.5;exitDx=0;exitDy=0;fontFamily=Garamond;fontSize=12;entryX=1;entryY=0.5;entryDx=0;entryDy=0;" parent="1" source="MxA3nA4hWYwd1lo81ExB-7" target="MxA3nA4hWYwd1lo81ExB-1" edge="1">
          <mxGeometry relative="1" as="geometry">
            <mxPoint x="710" y="220" as="targetPoint" />
            <Array as="points">
              <mxPoint x="710" y="380" />
              <mxPoint x="710" y="220" />
            </Array>
          </mxGeometry>
        </mxCell>
        <mxCell id="MxA3nA4hWYwd1lo81ExB-7" value="" style="rhombus;whiteSpace=wrap;html=1;" parent="1" vertex="1">
          <mxGeometry x="560" y="330" width="100" height="100" as="geometry" />
        </mxCell>
        <mxCell id="MxA3nA4hWYwd1lo81ExB-9" value="&lt;font face=&quot;Garamond&quot;&gt;No&lt;/font&gt;" style="text;html=1;strokeColor=none;fillColor=none;align=center;verticalAlign=middle;whiteSpace=wrap;rounded=0;" parent="1" vertex="1">
          <mxGeometry x="600" y="280" width="60" height="30" as="geometry" />
        </mxCell>
        <mxCell id="MxA3nA4hWYwd1lo81ExB-13" value="&lt;font face=&quot;Garamond&quot;&gt;&lt;span style=&quot;font-size: 12px;&quot;&gt;Continue with your daily routine&lt;/span&gt;&lt;/font&gt;" style="text;html=1;strokeColor=none;fillColor=none;align=center;verticalAlign=middle;whiteSpace=wrap;rounded=0;fontSize=9;" parent="1" vertex="1">
          <mxGeometry x="570" y="355" width="80" height="50" as="geometry" />
        </mxCell>
        <mxCell id="MxA3nA4hWYwd1lo81ExB-19" style="edgeStyle=orthogonalEdgeStyle;rounded=0;orthogonalLoop=1;jettySize=auto;html=1;entryX=0.5;entryY=0;entryDx=0;entryDy=0;exitX=0;exitY=0.75;exitDx=0;exitDy=0;" parent="1" source="MxA3nA4hWYwd1lo81ExB-21" edge="1">
          <mxGeometry relative="1" as="geometry">
            <mxPoint x="400" y="570" as="sourcePoint" />
            <Array as="points">
              <mxPoint x="430" y="580" />
              <mxPoint x="400" y="580" />
            </Array>
            <mxPoint x="400" y="650" as="targetPoint" />
          </mxGeometry>
        </mxCell>
        <mxCell id="MxA3nA4hWYwd1lo81ExB-20" style="edgeStyle=orthogonalEdgeStyle;rounded=0;orthogonalLoop=1;jettySize=auto;html=1;exitX=1;exitY=1;exitDx=0;exitDy=0;entryX=0.5;entryY=0;entryDx=0;entryDy=0;fontFamily=Garamond;fontSize=12;" parent="1" source="MxA3nA4hWYwd1lo81ExB-21" edge="1">
          <mxGeometry relative="1" as="geometry">
            <Array as="points">
              <mxPoint x="540" y="580" />
            </Array>
            <mxPoint x="540" y="650" as="targetPoint" />
          </mxGeometry>
        </mxCell>
        <mxCell id="MxA3nA4hWYwd1lo81ExB-21" value="&lt;font face=&quot;Garamond&quot;&gt;Did the user secure the Safe?&lt;/font&gt;" style="whiteSpace=wrap;html=1;aspect=fixed;" parent="1" vertex="1">
          <mxGeometry x="430" y="500" width="80" height="80" as="geometry" />
        </mxCell>
        <mxCell id="MxA3nA4hWYwd1lo81ExB-32" value="&lt;font face=&quot;Garamond&quot;&gt;Yes&lt;/font&gt;" style="text;html=1;strokeColor=none;fillColor=none;align=center;verticalAlign=middle;whiteSpace=wrap;rounded=0;" parent="1" vertex="1">
          <mxGeometry x="350" y="600" width="60" height="30" as="geometry" />
        </mxCell>
        <mxCell id="MxA3nA4hWYwd1lo81ExB-33" value="&lt;font face=&quot;Garamond&quot;&gt;No&lt;/font&gt;" style="text;html=1;strokeColor=none;fillColor=none;align=center;verticalAlign=middle;whiteSpace=wrap;rounded=0;" parent="1" vertex="1">
          <mxGeometry x="530" y="600" width="60" height="30" as="geometry" />
        </mxCell>
        <mxCell id="MxA3nA4hWYwd1lo81ExB-63" style="edgeStyle=orthogonalEdgeStyle;rounded=0;orthogonalLoop=1;jettySize=auto;html=1;exitX=0.5;exitY=1;exitDx=0;exitDy=0;entryX=0.5;entryY=0;entryDx=0;entryDy=0;fontFamily=Garamond;fontSize=12;" parent="1" source="MxA3nA4hWYwd1lo81ExB-34" target="MxA3nA4hWYwd1lo81ExB-56" edge="1">
          <mxGeometry relative="1" as="geometry" />
        </mxCell>
        <mxCell id="MxA3nA4hWYwd1lo81ExB-86" style="edgeStyle=orthogonalEdgeStyle;rounded=0;orthogonalLoop=1;jettySize=auto;html=1;exitX=0.5;exitY=1;exitDx=0;exitDy=0;entryX=0.5;entryY=0;entryDx=0;entryDy=0;fontFamily=Garamond;fontSize=12;" parent="1" source="MxA3nA4hWYwd1lo81ExB-34" target="MxA3nA4hWYwd1lo81ExB-77" edge="1">
          <mxGeometry relative="1" as="geometry" />
        </mxCell>
        <mxCell id="MxA3nA4hWYwd1lo81ExB-34" value="&lt;font face=&quot;Garamond&quot;&gt;Switch to&lt;br&gt;Protected Mode&lt;br&gt;&amp;nbsp;or StandBy&lt;br&gt;&amp;nbsp;Mode&lt;br&gt;&lt;/font&gt;" style="rhombus;whiteSpace=wrap;html=1;" parent="1" vertex="1">
          <mxGeometry x="350" y="650" width="100" height="100" as="geometry" />
        </mxCell>
        <mxCell id="MxA3nA4hWYwd1lo81ExB-44" style="edgeStyle=orthogonalEdgeStyle;rounded=0;orthogonalLoop=1;jettySize=auto;html=1;exitX=1;exitY=0.5;exitDx=0;exitDy=0;fontFamily=Garamond;fontSize=12;entryX=1;entryY=0.5;entryDx=0;entryDy=0;" parent="1" source="MxA3nA4hWYwd1lo81ExB-35" target="MxA3nA4hWYwd1lo81ExB-21" edge="1">
          <mxGeometry relative="1" as="geometry">
            <mxPoint x="670" y="530" as="targetPoint" />
            <Array as="points">
              <mxPoint x="670" y="700" />
              <mxPoint x="670" y="540" />
            </Array>
          </mxGeometry>
        </mxCell>
        <mxCell id="MxA3nA4hWYwd1lo81ExB-35" value="" style="rhombus;whiteSpace=wrap;html=1;" parent="1" vertex="1">
          <mxGeometry x="490" y="650" width="100" height="100" as="geometry" />
        </mxCell>
        <mxCell id="MxA3nA4hWYwd1lo81ExB-36" value="&lt;font face=&quot;Garamond&quot;&gt;&lt;span style=&quot;font-size: 12px;&quot;&gt;Go to the &lt;br&gt;safe to secure the contents.&lt;/span&gt;&lt;/font&gt;" style="text;html=1;strokeColor=none;fillColor=none;align=center;verticalAlign=middle;whiteSpace=wrap;rounded=0;fontSize=9;" parent="1" vertex="1">
          <mxGeometry x="500" y="675" width="80" height="50" as="geometry" />
        </mxCell>
        <mxCell id="MxA3nA4hWYwd1lo81ExB-69" style="edgeStyle=orthogonalEdgeStyle;rounded=0;orthogonalLoop=1;jettySize=auto;html=1;exitX=0;exitY=1;exitDx=0;exitDy=0;fontFamily=Garamond;fontSize=12;entryX=0.5;entryY=0;entryDx=0;entryDy=0;" parent="1" source="MxA3nA4hWYwd1lo81ExB-56" target="MxA3nA4hWYwd1lo81ExB-59" edge="1">
          <mxGeometry relative="1" as="geometry">
            <mxPoint x="230" y="940" as="targetPoint" />
            <Array as="points">
              <mxPoint x="210" y="880" />
            </Array>
          </mxGeometry>
        </mxCell>
        <mxCell id="MxA3nA4hWYwd1lo81ExB-72" style="edgeStyle=orthogonalEdgeStyle;rounded=0;orthogonalLoop=1;jettySize=auto;html=1;exitX=1;exitY=1;exitDx=0;exitDy=0;entryX=0.5;entryY=0;entryDx=0;entryDy=0;fontFamily=Garamond;fontSize=12;" parent="1" source="MxA3nA4hWYwd1lo81ExB-56" target="MxA3nA4hWYwd1lo81ExB-61" edge="1">
          <mxGeometry relative="1" as="geometry">
            <Array as="points">
              <mxPoint x="330" y="880" />
            </Array>
          </mxGeometry>
        </mxCell>
        <mxCell id="MxA3nA4hWYwd1lo81ExB-56" value="&lt;font face=&quot;Garamond&quot;&gt;Did you select Protected Mode?&lt;/font&gt;" style="whiteSpace=wrap;html=1;aspect=fixed;" parent="1" vertex="1">
          <mxGeometry x="230" y="800" width="80" height="80" as="geometry" />
        </mxCell>
        <mxCell id="MxA3nA4hWYwd1lo81ExB-57" value="&lt;font face=&quot;Garamond&quot;&gt;Yes&lt;/font&gt;" style="text;html=1;strokeColor=none;fillColor=none;align=center;verticalAlign=middle;whiteSpace=wrap;rounded=0;" parent="1" vertex="1">
          <mxGeometry x="160" y="900" width="60" height="30" as="geometry" />
        </mxCell>
        <mxCell id="MxA3nA4hWYwd1lo81ExB-58" value="&lt;font face=&quot;Garamond&quot;&gt;No&lt;/font&gt;" style="text;html=1;strokeColor=none;fillColor=none;align=center;verticalAlign=middle;whiteSpace=wrap;rounded=0;" parent="1" vertex="1">
          <mxGeometry x="320" y="900" width="60" height="30" as="geometry" />
        </mxCell>
        <mxCell id="MxA3nA4hWYwd1lo81ExB-59" value="&lt;font face=&quot;Garamond&quot;&gt;Your&lt;br&gt;&amp;nbsp;Safe&amp;nbsp;is&amp;nbsp;now &lt;br&gt;secured,&amp;nbsp;you will&amp;nbsp;be&amp;nbsp;alerted&amp;nbsp;if &lt;br&gt;it&#39;s broken &lt;br&gt;into&lt;br&gt;&lt;/font&gt;" style="rhombus;whiteSpace=wrap;html=1;" parent="1" vertex="1">
          <mxGeometry x="160" y="940" width="100" height="100" as="geometry" />
        </mxCell>
        <mxCell id="MxA3nA4hWYwd1lo81ExB-87" style="edgeStyle=orthogonalEdgeStyle;rounded=0;orthogonalLoop=1;jettySize=auto;html=1;exitX=1;exitY=0.5;exitDx=0;exitDy=0;entryX=1;entryY=0.5;entryDx=0;entryDy=0;fontFamily=Garamond;fontSize=12;" parent="1" source="MxA3nA4hWYwd1lo81ExB-61" target="MxA3nA4hWYwd1lo81ExB-61" edge="1">
          <mxGeometry relative="1" as="geometry" />
        </mxCell>
        <mxCell id="MxA3nA4hWYwd1lo81ExB-101" style="edgeStyle=orthogonalEdgeStyle;rounded=0;orthogonalLoop=1;jettySize=auto;html=1;exitX=0.5;exitY=1;exitDx=0;exitDy=0;fontFamily=Garamond;fontSize=12;" parent="1" source="MxA3nA4hWYwd1lo81ExB-61" edge="1">
          <mxGeometry relative="1" as="geometry">
            <mxPoint x="400" y="780" as="targetPoint" />
          </mxGeometry>
        </mxCell>
        <mxCell id="MxA3nA4hWYwd1lo81ExB-61" value="" style="rhombus;whiteSpace=wrap;html=1;" parent="1" vertex="1">
          <mxGeometry x="280" y="940" width="100" height="100" as="geometry" />
        </mxCell>
        <mxCell id="MxA3nA4hWYwd1lo81ExB-62" value="&lt;font face=&quot;Garamond&quot;&gt;&lt;span style=&quot;font-size: 12px;&quot;&gt;Select a mode&lt;/span&gt;&lt;/font&gt;" style="text;html=1;strokeColor=none;fillColor=none;align=center;verticalAlign=middle;whiteSpace=wrap;rounded=0;fontSize=9;" parent="1" vertex="1">
          <mxGeometry x="290" y="965" width="80" height="50" as="geometry" />
        </mxCell>
        <mxCell id="MxA3nA4hWYwd1lo81ExB-75" style="edgeStyle=orthogonalEdgeStyle;rounded=0;orthogonalLoop=1;jettySize=auto;html=1;exitX=0;exitY=1;exitDx=0;exitDy=0;fontFamily=Garamond;fontSize=12;entryX=0.5;entryY=0;entryDx=0;entryDy=0;" parent="1" source="MxA3nA4hWYwd1lo81ExB-77" target="MxA3nA4hWYwd1lo81ExB-80" edge="1">
          <mxGeometry relative="1" as="geometry">
            <mxPoint x="485" y="940" as="targetPoint" />
            <Array as="points">
              <mxPoint x="465" y="880" />
            </Array>
          </mxGeometry>
        </mxCell>
        <mxCell id="MxA3nA4hWYwd1lo81ExB-107" style="edgeStyle=orthogonalEdgeStyle;rounded=0;orthogonalLoop=1;jettySize=auto;html=1;exitX=1;exitY=1;exitDx=0;exitDy=0;entryX=0.5;entryY=0;entryDx=0;entryDy=0;fontFamily=Garamond;fontSize=12;" parent="1" source="MxA3nA4hWYwd1lo81ExB-77" target="MxA3nA4hWYwd1lo81ExB-81" edge="1">
          <mxGeometry relative="1" as="geometry">
            <Array as="points">
              <mxPoint x="590" y="880" />
            </Array>
          </mxGeometry>
        </mxCell>
        <mxCell id="MxA3nA4hWYwd1lo81ExB-77" value="&lt;font face=&quot;Garamond&quot;&gt;Did you select StandBy Mode?&lt;/font&gt;" style="whiteSpace=wrap;html=1;aspect=fixed;" parent="1" vertex="1">
          <mxGeometry x="485" y="800" width="80" height="80" as="geometry" />
        </mxCell>
        <mxCell id="MxA3nA4hWYwd1lo81ExB-78" value="&lt;font face=&quot;Garamond&quot;&gt;No&lt;/font&gt;" style="text;html=1;strokeColor=none;fillColor=none;align=center;verticalAlign=middle;whiteSpace=wrap;rounded=0;" parent="1" vertex="1">
          <mxGeometry x="415" y="900" width="60" height="30" as="geometry" />
        </mxCell>
        <mxCell id="MxA3nA4hWYwd1lo81ExB-79" value="&lt;font face=&quot;Garamond&quot;&gt;Yes&lt;/font&gt;" style="text;html=1;strokeColor=none;fillColor=none;align=center;verticalAlign=middle;whiteSpace=wrap;rounded=0;" parent="1" vertex="1">
          <mxGeometry x="600" y="900" width="60" height="30" as="geometry" />
        </mxCell>
        <mxCell id="MxA3nA4hWYwd1lo81ExB-103" style="edgeStyle=orthogonalEdgeStyle;rounded=0;orthogonalLoop=1;jettySize=auto;html=1;exitX=0.5;exitY=1;exitDx=0;exitDy=0;fontFamily=Garamond;fontSize=12;" parent="1" source="MxA3nA4hWYwd1lo81ExB-80" edge="1">
          <mxGeometry relative="1" as="geometry">
            <mxPoint x="465" y="1010" as="targetPoint" />
          </mxGeometry>
        </mxCell>
        <mxCell id="MxA3nA4hWYwd1lo81ExB-80" value="&lt;font face=&quot;Garamond&quot;&gt;Select a mode&lt;br&gt;&lt;/font&gt;" style="rhombus;whiteSpace=wrap;html=1;" parent="1" vertex="1">
          <mxGeometry x="415" y="940" width="100" height="100" as="geometry" />
        </mxCell>
        <mxCell id="MxA3nA4hWYwd1lo81ExB-81" value="&lt;font face=&quot;Garamond&quot;&gt;Carry&amp;nbsp;your &lt;br&gt;safe wherever&lt;br&gt;&amp;nbsp;you want&lt;br&gt;&amp;nbsp;without any &lt;br&gt;alarm&lt;/font&gt;" style="rhombus;whiteSpace=wrap;html=1;" parent="1" vertex="1">
          <mxGeometry x="540" y="940" width="100" height="100" as="geometry" />
        </mxCell>
        <mxCell id="MxA3nA4hWYwd1lo81ExB-106" value="" style="endArrow=none;html=1;rounded=0;fontFamily=Garamond;fontSize=12;entryX=0.5;entryY=1;entryDx=0;entryDy=0;" parent="1" target="MxA3nA4hWYwd1lo81ExB-80" edge="1">
          <mxGeometry width="50" height="50" relative="1" as="geometry">
            <mxPoint x="400" y="1060" as="sourcePoint" />
            <mxPoint x="360" y="870" as="targetPoint" />
            <Array as="points">
              <mxPoint x="465" y="1060" />
            </Array>
          </mxGeometry>
        </mxCell>
      </root>
    </mxGraphModel>
  </diagram>
</mxfile>
